<svg xmlns:xlink="http://www.w3.org/1999/xlink" xmlns="http://www.w3.org/2000/svg" viewBox="0 0 1921 338" width="1920" height="338"><title>Electric_icon_soloway-svg</title><style>		tspan { white-space:pre } 		.s0 { fill: #1b1b1b } 		.s1 { fill: #269fbf } 	</style><g id="Calque_2"><g id="Calque_1-2"><path id="Trazado_768" class="s0" d="m1497 168.1c-84.1 0-149.5-35-150.5-35.6l3.4-6.1c1.4 0.7 145.3 77.7 279.2 0 137.3-79.7 290.1-0.9 291.6-0.1l-3.3 6.2c-1.5-0.8-150.9-77.8-284.8-0.1-46.1 26.8-93.3 35.7-135.6 35.7z"/><g id="soloway-conexion"><path id="Trazado_723" class="s0" d="m99.6 210.9c-5.7 10.5-15.6 15.1-26.3 18.4-25.4 7.7-49.6 2.3-73.3-7.2v-5.6c7.4 0.4 14 3.9 20.9 6.1 15.9 5.1 31.7 5.1 47.8 1.5 11.2-2.5 20.3-8 27.1-17.2q0.7 0.1 1.4 0.5 0.6 0.4 1.2 0.9 0.5 0.5 0.8 1.2 0.3 0.7 0.4 1.4z"/><path id="Trazado_724" class="s0" d="m568.6 116.8c-25.8-9.2-55.7-3-71.9 15.1q-0.6-0.2-1.2-0.6-0.6-0.4-1.1-1-0.5-0.5-0.9-1.1-0.3-0.6-0.6-1.3c5.2-9.1 13.7-13.6 23.2-16.6 17.3-5.7 34.8-5.9 52.5-1.8z"/><path id="Trazado_725" class="s0" d="m193.9 39.1c6.5 4.6 10.8 11 14.9 17.6 1.9 3 6.7 2.4 7.7 6.4 3.8-1.2 3.8-1.2 3.9 2.4 0 2.5 1.8 1.1 2.9 1.3q0.7 0.1 1.4 0.2 0.7 0.2 1.4 0.4 0.7 0.3 1.3 0.6 0.6 0.4 1.2 0.8c2.3 3.7 4.7 2.5 7.6 0.6 3-1.8 7-3.7 9.6-1.9 9.5 7.1 23.5 6.5 30.4 17.9 2.4 3.9 5.7 7.2 8.4 10.9 2.2 2.9 4.2 4.6 8.4 3.6 5.3-1.2 9.8 1.2 11.7 6.6 1.8 5.2 0.1 9.7-4.3 13q-28.6 21.5-57.3 42.9c-4.5 3.3-9.7 4.1-14.5 0.5-5-3.6-5.7-8.9-2.5-13.8 2.2-3.4 0.2-5-1.4-7.1-4-5.1-8-10.1-12-15.2-3-3.8-6.8-7.5-2.2-12.8 2.1-2.5-0.6-3.8-1.6-5.4-4.4-6.8-4.4-13.5 1.2-19.3 2.7-2.8 3.5-4.5 0.4-7.2-3.1-2.8-2.2-5 1.1-6.9q0-0.1-0.1-0.2 0-0.1-0.1-0.2 0-0.1-0.1-0.2 0 0-0.1-0.1-0.1-0.1-0.2-0.1-0.1-0.1-0.2-0.2-0.1 0-0.2-0.1-0.1 0-0.2 0c-2.4-1.8 1.1-5.5-2.3-6.9-1.6 0.3-3.8 1.3-4.7 0.6-1-0.8 0.4-2 1.5-3.2 3.4-3.8-1-6.5-2.9-8.1-4.3-3.9-7-8.7-10.1-13.3-1.1-2.2 0.2-3.2 2-4z"/><path id="Trazado_726" class="s0" d="m371.7 275.5c-3.4-6-11.5-5.4-15.3-10.8-1.4-2-3.1-0.8-4.9-0.4-13.4 2.7-25.8 4-35.4-10-2.5-3.5-7.3-7.5-10.9-11.3-1.8-1.9-3-3.5-6.1-2.5-6 1.9-11.1 0.2-13.7-5.7-2.9-6.6 0.8-11 5.8-14.8 1.5-1 2.8-2.3 4.2-3.5 1-3.8 4.1-4.7 7.4-5.5l27.6-20.5c1.6-4.4 5.5-5.8 9.4-7.1 3-2 5.9-4.4 9.1-6.1 4.7-2.6 9.5-2.3 13.5 1.6 3.7 3.6 4.7 8.4 1.6 12.4-3.4 4.4-1.5 6.8 1.3 10 7.3 8.7 14.3 17.7 13.1 30.2q-0.1 1.7-0.4 3.4-0.3 1.7-0.8 3.3-0.4 1.7-1 3.3-0.7 1.6-1.5 3.1c-1 2-1.7 3.6 0 5.8 2.5 3 7.1 5.8 2.2 10.5 7 0-0.7 6.4 3.4 7.7 1.7 8-4.6 6-8.6 6.9z"/><path id="Trazado_727" class="s0" d="m492.9 127.9c2.6 0.1 3.7 1.6 3.8 4-7.6 15.3-5.4 30.8-1 46.5 5.7 20.4 16.1 38.8 25.2 57.7 0.9 3.3-0.6 4.5-3.7 4.4-13.8-22.9-25.8-46.6-30.5-73.2-2.5-13.6-3-27.4 6.2-39.4z"/><path id="Trazado_728" class="s0" d="m99.6 210.9q-0.7-0.2-1.3-0.6-0.6-0.5-1.1-1-0.4-0.5-0.8-1.1-0.4-0.6-0.6-1.3c7.3-16.5 4.4-33-0.5-49.3-5.2-17.4-14.1-33.1-21.6-49.5-1-3.5-0.8-5.8 3.8-4.2 13.8 23.3 25.4 47.5 28.8 74.7 1.4 11.4 0.4 22.6-6.7 32.3z"/><path id="Trazado_729" class="s0" d="m62.6 22.4c13.8-18.1 33-23.1 54.4-22.3q6.3 0.2 12.5 1.3 6.2 1.1 12.2 3 6 2 11.7 4.7 5.7 2.8 10.9 6.4c0.2 2.9-0.8 4.5-4 3.7-10.8-4.8-21.4-10-33.3-12-23.6-3.9-44.2 0.9-60.7 19.1-3 0.4-4.4-0.8-3.7-3.9z"/><path id="Trazado_730" class="s0" d="m518.8 323.7c-21.3 15.6-44.6 15.8-68.9 9.5-8.2-2.1-16.2-5-23.4-9.8-0.2-3 1-4.6 4.2-3.7 18.8 8 37.9 13.9 58.8 10 9.2-1.8 17.4-5.5 25.5-9.9 3-0.5 4.3 0.8 3.8 3.9z"/><path id="Trazado_731" class="s0" d="m62.6 22.4q0.2 0.7 0.6 1.3 0.3 0.6 0.8 1.1 0.5 0.5 1.1 0.9 0.5 0.4 1.2 0.6c-11.4 18.2-10 36.6-0.8 55 3.8 7.7 8 15.1 12 22.7-2.7 0.1-3.6 1.8-3.8 4.1-9-14.5-18.6-28.8-21.2-46.2-2.2-14.5 0.1-28.1 10.1-39.5z"/><path id="Trazado_732" class="s0" d="m430.7 319.7q-0.7 0.2-1.3 0.5-0.6 0.4-1.2 0.9-0.5 0.4-1 1-0.4 0.6-0.7 1.3c-16.1-7.7-28.8-19.5-40.1-33-4.5-5.4-8-11.8-14.7-14.9 1.6-3.9 9-0.6 8.6-6.9 1.7-0.5 4.1-1.9 4.9-1.3 2 1.8-0.3 3-1.5 4.2-3.5 3.2 0.4 4.8 1.6 6.7 11.7 17.6 27.5 30.6 45.4 41.5z"/><path id="Trazado_733" class="s0" d="m291.9 212.4q-8.3-11-16.6-22c-2.6-3.5-5.9-7.2-0.8-11 5-3.9 7.7 0.7 10.3 4 5.2 6.5 10.2 13.1 15.3 19.6 1.6 2 3.4 3.7 0.8 6.2-2.3 3.2-4.4 6.6-9 3.2z"/><path id="Trazado_734" class="s0" d="m326.9 186.6c-5.6-7.5-11.3-15.1-17-22.6-2.5-3.3-5.4-6.6-1-10.3 4.4-3.7 7.3-0.8 9.9 2.6q9.4 12.4 18.8 24.8c-2.1 4.7-4.7 8.3-10.7 5.5z"/><path id="Trazado_735" class="s0" d="m529.7 251.6c11.1 19.3 14.9 38.9 1.8 59-3.1 0.3-4.5-0.9-3.7-4.1 9.4-17.3 5.8-34-1.9-50.6-0.8-3.2 0.7-4.5 3.8-4.3z"/><path id="Trazado_736" class="s1" d="m395.8 173.8q-7.4 0-14.7 0c-2.2 0-4.5-0.4-4.7-3.2-0.1-2.7 2-3.5 4.4-3.5 9.7 0.2 19.5 0.4 29.3 0.7 2 0 3.8 0.7 3.8 3 0 2.8-2 3.4-4.4 3.4h-13.7q0 0 0-0.1 0 0 0-0.1 0 0 0-0.1 0-0.1 0-0.1z"/><path id="Trazado_737" class="s1" d="m270.5 285.3c-2.8 0-4.5-1.3-4.2-3.2 2-10.5 4.3-20.9 6.6-31.3q0.2-0.5 0.5-0.9 0.3-0.4 0.8-0.7 0.4-0.2 0.9-0.3 0.6 0 1.1 0.1 0 0 0.1 0 0 0 0.1 0.1 0 0 0.1 0 0 0 0.1 0 0.5 0.2 1 0.6 0.5 0.3 0.7 0.8 0.3 0.5 0.4 1.1 0.1 0.6 0 1.1c-2 10.2-3.9 20.4-6.1 30.5-0.2 0.9-1.5 1.6-2.1 2.1z"/><path id="Trazado_738" class="s1" d="m308 82.9c1.7-8.4 3.6-17.3 5.4-26.3 0.4-2.2 1.1-4.4 3.8-4.1 2.6 0.3 3 2.8 2.5 5-1.7 9.2-3.6 18.5-5.5 27.7-0.5 2.3-1.4 4.4-4.2 3.6-2.7-0.7-2.1-3.2-2-5.9z"/><path id="Trazado_739" class="s0" d="m160.2 19.2q0.7-0.3 1.3-0.6 0.6-0.4 1.1-0.9 0.6-0.4 1-1 0.4-0.6 0.6-1.2 4.3 2.2 8.3 4.8 4 2.6 7.7 5.6 3.7 3 7.1 6.3 3.5 3.3 6.6 6.9-1 2-2 4.1-15.8-12-31.7-24z"/><path id="Trazado_740" class="s1" d="m190.9 170.2h-14.7c-2.1 0-3.6-1.1-3.8-3.1q0-0.6 0.2-1.2 0.2-0.6 0.7-1.1 0.4-0.4 0.9-0.7 0.6-0.3 1.2-0.3 0.1-0.1 0.2-0.1 0 0 0.1 0 0.1 0 0.1 0 0.1 0 0.2 0.1c10.3 0.1 20.7 0.4 31.1 0.8q0.6 0 1.1 0.1 0.5 0.2 1 0.6 0.4 0.4 0.6 0.9 0.3 0.5 0.3 1v0.2c0 2.2-1.7 3.2-3.7 3.2-5.2 0.1-10.4 0-15.6 0z"/><path id="Trazado_741" class="s1" d="m198.4 241.4q0.3-0.4 0.6-0.9 0.3-0.4 0.6-0.8 0.3-0.5 0.7-0.9 0.3-0.4 0.7-0.7 10.7-8.7 21.6-17.3c1.6-1.2 3.4-3.2 5.6-0.9 2.6 2.7 0.4 4.4-1.6 6q-10.8 8.7-21.6 17.2c-2.6 2-5 2.5-6.6-1.7z"/><path id="Trazado_742" class="s1" d="m361.4 119.4c-1.4-0.7-3-0.9-3.4-1.7-0.7-1.6-0.8-3.5 1-4.9l23.6-18.7c1.2-1 2.6-1.5 4-0.2 1.3 1.2 2 2.9 0.7 4-8.5 7.3-17.1 14.3-25.9 21.5z"/><path id="Trazado_743" class="s1" d="m345.2 80c2.6 0.7 3.8 2.4 2.3 5.3-2.2 4.2-4.5 8.5-7 12.6-1.6 2.6-3.9 3-5.7 0.1-1.5-2.5 7.3-17.9 10.4-18z"/><path id="Trazado_744" class="s1" d="m211.3 193.2q0.6 0 1.1 0.2 0.6 0.1 1 0.5 0.5 0.3 0.8 0.8 0.3 0.5 0.5 1 0.2 0.6 0.2 1.1-0.1 0.6-0.3 1.1-0.3 0.5-0.7 0.9-0.4 0.4-1 0.6c-5.7 1.9-10.8 5.7-17 5.4-1.4-0.1-2.7-2.5-1.6-3.7 4.3-4.6 10.8-4.9 16.2-7.7q0.1 0 0.2 0 0.1-0.1 0.2-0.1 0.1 0 0.2-0.1 0.1 0 0.2 0z"/><path id="Trazado_745" class="s1" d="m387.3 133.1c2.4-0.3 4 0 4.6 1.6 0.8 2-0.2 3.6-2.1 4.4-4.5 1.8-9 3.6-13.7 5.3q-0.6 0.3-1.2 0.3-0.7 0-1.3-0.2-0.6-0.3-1.1-0.8-0.4-0.4-0.7-1 0-0.1 0-0.1 0-0.1-0.1-0.1 0 0 0-0.1 0 0 0-0.1c-0.7-1.8 0.5-3 1.9-3.6 4.8-2 9.6-3.9 13.7-5.6z"/><path id="Trazado_746" class="s1" d="m239.6 254.3c2.6-4.9 3.6-10.7 7.7-14.9 1.5-1.5 2.7-1.2 3.9-0.1 0.8 0.8 1.9 1.6 1.1 3-2.7 4.7-4.4 10-8.2 14q-0.3 0.4-0.7 0.6-0.4 0.3-0.8 0.4-0.5 0-0.9-0.1-0.5-0.1-0.9-0.3c-0.6-0.4-0.7-1.5-1.2-2.6z"/><path id="Trazado_747" class="s0" d="m527.8 306.5q0.2 0.7 0.5 1.3 0.4 0.6 0.9 1.1 0.5 0.6 1.1 1 0.6 0.4 1.2 0.7c-2.8 5.8-7.2 9.9-12.7 13.1q-0.3-0.7-0.6-1.3-0.4-0.6-0.9-1.1-0.5-0.5-1.1-0.8-0.6-0.4-1.3-0.7 6.5-6.7 12.9-13.3z"/><path id="Trazado_748" class="s0" d="m529.7 251.6q-0.7 0.3-1.3 0.7-0.6 0.5-1.1 1-0.5 0.6-0.9 1.2-0.3 0.7-0.6 1.4-1.3-1.8-2.5-3.6-1.2-1.9-2.3-3.8-1.1-2-2.1-4-0.9-2-1.8-4 0.7-0.3 1.3-0.8 0.6-0.4 1.1-1 0.5-0.6 0.8-1.2 0.4-0.7 0.6-1.4 1.4 1.8 2.6 3.6 1.3 1.9 2.4 3.9 1.1 1.9 2 3.9 1 2 1.8 4.1z"/><path id="Trazado_749" class="s0" d="m326.9 186.6c5.1 1.1 7-3.9 10.7-5.5q1.1 1.1 2.2 2.3-0.9 1.1-2 2.1-1.1 1.1-2.3 1.9-1.2 0.9-2.5 1.7-1.3 0.8-2.6 1.4z"/><path id="Trazado_750" class="s0" d="m291.9 212.4c4.2 2.2 5.8-2.9 9-3.2l1.9 1.8q-0.7 0.9-1.6 1.7-0.8 0.8-1.8 1.5-0.9 0.7-1.9 1.3-1.1 0.6-2.1 1-1.8-2.1-3.5-4.1z"/><path id="Trazado_751" class="s0" d="m216.5 63.1c-2.2-2.5-6.4-2.7-7.7-6.4 0.8 0.5 1.9 1.6 2.2 1.4 8.6-5.6 5.3 1.6 5.5 5z"/><path id="Trazado_752" class="s0" d="m208.1 67.2c5 0.9 2.6 4.2 2.3 6.9-9.8 0.8 0.8-5.4-2.3-6.9z"/><path id="Trazado_753" class="s0" d="m228.6 68.8c-2 0-4.1 0.3-5.3-2 3.3-3.4 4.4-1 5.3 2z"/></g><path id="Layer" class="s0" d="m560.5 138c0-71.8 58.2-130 130-130h530c71.8 0 130 58.2 130 130 0 71.8-58.2 130-130 130h-530c-71.8 0-130-58.2-130-130z"/></g></g></svg>