<svg xmlns="http://www.w3.org/2000/svg" xmlns:xlink="http://www.w3.org/1999/xlink" id="Grupo_762" data-name="Grupo 762" width="540" height="87.735" viewBox="0 0 540 87.735"><defs><clipPath id="clip-path"><rect id="Rect&#xE1;ngulo_188" data-name="Rect&#xE1;ngulo 188" width="540" height="87.735" fill="#fff"></rect></clipPath></defs><g id="Grupo_695" data-name="Grupo 695" transform="translate(0 0)" clip-path="url(#clip-path)"><path id="Trazado_715" data-name="Trazado 715" d="M42.245,36.754l-8.5-2.712Q24.907,31.27,22.128,28.98a7.2,7.2,0,0,1-2.779-5.8,7.775,7.775,0,0,1,3.816-6.955Q26.981,13.8,34.144,13.8a44.826,44.826,0,0,1,12.989,1.979l2.359.712-.014,0s1.027.31.014,0l7.9,2.56a2.572,2.572,0,0,0,2.65-.645l.008-.008a2.515,2.515,0,0,0,.69-1.2l.9-3.446a8.177,8.177,0,0,0-1.57-7.16l-.018-.022a7.975,7.975,0,0,0-3.828-2.644,54.123,54.123,0,0,0-9.83-2.6A72.807,72.807,0,0,0,32.606,0Q17.408,0,8.7,6.561T0,24.6q0,8.934,5.29,14.222T25.508,48.913l9.708,3.109a17.972,17.972,0,0,1,7.765,4.5,9.41,9.41,0,0,1,2.678,6.643,9,9,0,0,1-4.017,7.832q-4.014,2.8-11.314,2.8A48.7,48.7,0,0,1,15.7,71.473c-.961-.3-2.017-.649-3.086-1.011l-7.87-2.817c-.165-.056-.215-.072-.165-.052A2.525,2.525,0,0,0,1.41,69.426S.028,76.23.4,77.559l0,.008a8.448,8.448,0,0,0,5.32,5.966l3.189,1.1c1.942.579,3.917,1.06,5.918,1.462a75.656,75.656,0,0,0,14.9,1.5q18.075,0,27.014-6.306T65.678,62.2q0-9.386-5.69-15.549t-17.742-9.9" transform="translate(0 0)" fill="#fff" fill-rule="evenodd"></path><path id="Trazado_716" data-name="Trazado 716" d="M78.481,0a43.827,43.827,0,1,0,43.827,43.827A43.848,43.848,0,0,0,78.481,0m0,69.687a25.859,25.859,0,1,1,25.858-25.86,25.871,25.871,0,0,1-25.858,25.86" transform="translate(35.025 0)" fill="#fff" fill-rule="evenodd"></path><path id="Trazado_717" data-name="Trazado 717" d="M150.085,0a43.827,43.827,0,1,0,43.827,43.827A43.848,43.848,0,0,0,150.085,0m0,69.687a25.859,25.859,0,1,1,25.858-25.86,25.872,25.872,0,0,1-25.858,25.86" transform="translate(107.396 0)" fill="#fff" fill-rule="evenodd"></path><path id="Trazado_718" data-name="Trazado 718" d="M141.89,75.559c-1.353-3.637-5.4-6.591-9.042-6.591h-12.1L104.2,27.871h-.008L95.418,5.056A8.082,8.082,0,0,0,88.532.047H80.479c-3.83,0-5.907,3.086-4.458,6.9L86.973,34.313l19.1,48.366a8.083,8.083,0,0,0,6.887,5.009H138.91c4.134,0,6.241-3.358,4.705-7.49Z" transform="translate(76.367 0.047)" fill="#fff" fill-rule="evenodd"></path><path id="Trazado_719" data-name="Trazado 719" d="M270.862,6.919c1.42-3.816-.519-6.9-4.345-6.9H258.47a8.1,8.1,0,0,0-6.915,5.009L243.737,26.3l-5.266,14.34h0l-.651,1.79-6.34,17.419-2.672,7.341-2.727-7.345-9.352-25.18h0L211.074,19.9h-.026l-.042-.008L205.329,5.023A8.083,8.083,0,0,0,198.442.014h-8.053c-3.83,0-5.905,3.088-4.458,6.9l3.7,9.251-.008,0,10.57,26.4-6.283,17.268-2.672,7.341-2.728-7.345-9.35-25.18h0l-5.656-14.769h-.026l-.042-.008L167.763,5.009A8.085,8.085,0,0,0,160.876,0h-8.053c-3.83,0-5.907,3.088-4.46,6.9l3.7,9.253-.008,0,17.483,43.663s6.84,17.157,8.865,21.794c1.649,3.776,2.865,6.016,6.394,6.016h12.83c3.519,0,4.691-2.332,6.374-6,.746-1.623,2.035-4.787,3.384-8.216l2.544-6.531c2.131,5.3,4.878,12.08,6.04,14.743,1.651,3.776,2.865,6.016,6.394,6.016H235.2c3.519,0,4.691-2.332,6.374-6,.746-1.623,2.035-4.787,3.384-8.216l12.072-31Z" transform="translate(149.485 0)" fill="#fff" fill-rule="evenodd"></path><path id="Trazado_720" data-name="Trazado 720" d="M282.456,71.473l.006,0L264.979,27.812s-6.84-17.159-8.865-21.794C254.465,2.242,253.249,0,249.72,0H236.89c-3.517,0-4.689,2.332-6.374,6-.744,1.625-2.033,4.79-3.382,8.216l-12.074,31L201.228,80.724c-1.42,3.816.517,6.9,4.345,6.9h8.047a8.1,8.1,0,0,0,6.913-5.009l7.82-21.277L233.618,47l.651-1.79,6.342-17.421,2.67-7.341L246.01,27.8l9.348,25.176h-15.5a8.316,8.316,0,0,0-7.136,5.2l-1.361,3.661c-1.214,3.261.45,5.911,3.714,5.911H261.05l.032.006,5.676,14.865a8.082,8.082,0,0,0,6.887,5.009H281.7c3.828,0,5.905-3.086,4.458-6.9Z" transform="translate(202.913 0)" fill="#fff" fill-rule="evenodd"></path><path id="Trazado_721" data-name="Trazado 721" d="M297.946,0h-8.055A8.086,8.086,0,0,0,283,5.009l-11.4,29.644-2.684,7.226-5.656-14.053h-.008L254.482,5.009A8.083,8.083,0,0,0,247.6,0h-8.053c-3.83,0-5.907,3.088-4.458,6.9l10.986,27.45,19.068,48.279a8.082,8.082,0,0,0,6.887,5.009h8.053c3.83,0,5.907-3.086,4.458-6.9l-3.7-9.251.008,0-2.151-5.34L302.4,6.9c1.448-3.814-.629-6.9-4.458-6.9" transform="translate(237.134 0)" fill="#fff" fill-rule="evenodd"></path></g></svg>