<svg xmlns="http://www.w3.org/2000/svg" xmlns:xlink="http://www.w3.org/1999/xlink" id="Grupo_746" data-name="Grupo 746" width="160" height="25.996" viewBox="0 0 160 25.996"><defs><clipPath id="clip-path"><rect id="Rectángulo_188" data-name="Rectángulo 188" width="160" height="25.996" fill="none"/></clipPath></defs><g id="Grupo_695" data-name="Grupo 695" transform="translate(0 0)" clip-path="url(#clip-path)"><path id="Trazado_715" data-name="Trazado 715" d="M12.517,10.89,10,10.086a11.488,11.488,0,0,1-3.442-1.5,2.132,2.132,0,0,1-.823-1.718A2.3,2.3,0,0,1,6.864,4.808a6.076,6.076,0,0,1,3.253-.72,13.282,13.282,0,0,1,3.849.586l.7.211h0s.3.092,0,0l2.342.758a.762.762,0,0,0,.785-.191l0,0A.745.745,0,0,0,18,5.1l.266-1.021A2.423,2.423,0,0,0,17.8,1.953l-.005-.007a2.363,2.363,0,0,0-1.134-.783A16.036,16.036,0,0,0,13.747.394,21.572,21.572,0,0,0,9.661,0,11.521,11.521,0,0,0,2.579,1.944,6.323,6.323,0,0,0,0,7.288,5.693,5.693,0,0,0,1.567,11.5q1.567,1.567,5.99,2.991l2.876.921a5.325,5.325,0,0,1,2.3,1.332,2.788,2.788,0,0,1,.794,1.968,2.668,2.668,0,0,1-1.19,2.321,5.807,5.807,0,0,1-3.352.829,14.431,14.431,0,0,1-4.334-.687c-.285-.089-.6-.192-.915-.3l-2.332-.835c-.049-.017-.064-.021-.049-.015a.748.748,0,0,0-.939.543,12.312,12.312,0,0,0-.3,2.41v0A2.5,2.5,0,0,0,1.7,24.75l.945.325c.576.172,1.161.314,1.753.433a22.417,22.417,0,0,0,4.414.444q5.356,0,8-1.868a6.458,6.458,0,0,0,2.648-5.654,6.53,6.53,0,0,0-1.686-4.607,11.773,11.773,0,0,0-5.257-2.932" transform="translate(0 0)" fill="white" fill-rule="evenodd"/><path id="Trazado_716" data-name="Trazado 716" d="M47.64,0A12.986,12.986,0,1,0,60.626,12.986,12.992,12.992,0,0,0,47.64,0m0,20.648A7.662,7.662,0,1,1,55.3,12.986a7.665,7.665,0,0,1-7.662,7.662" transform="translate(-14.008 0)" fill="white" fill-rule="evenodd"/><path id="Trazado_717" data-name="Trazado 717" d="M119.244,0A12.986,12.986,0,1,0,132.23,12.986,12.992,12.992,0,0,0,119.244,0m0,20.648a7.662,7.662,0,1,1,7.662-7.662,7.666,7.666,0,0,1-7.662,7.662" transform="translate(-42.953 0)" fill="white" fill-rule="evenodd"/><path id="Trazado_718" data-name="Trazado 718" d="M95.211,22.421a3.123,3.123,0,0,0-2.679-1.953H88.946l-4.9-12.177h0l-2.6-6.76A2.4,2.4,0,0,0,79.4.047H77.016a1.386,1.386,0,0,0-1.321,2.045L78.94,10.2,84.6,24.531a2.4,2.4,0,0,0,2.041,1.484h7.688A1.492,1.492,0,0,0,95.723,23.8Z" transform="translate(-30.543 -0.019)" fill="white" fill-rule="evenodd"/><path id="Trazado_719" data-name="Trazado 719" d="M184.334,2.05A1.374,1.374,0,0,0,183.046,0h-2.384a2.4,2.4,0,0,0-2.049,1.484l-2.316,6.3-1.56,4.249h0l-.193.53-1.878,5.161-.792,2.175-.808-2.176-2.771-7.461h0L166.619,5.9h-.008l-.013,0-1.682-4.405A2.4,2.4,0,0,0,162.876,0H160.49a1.387,1.387,0,0,0-1.321,2.046l1.1,2.741h0l3.132,7.822-1.862,5.116-.792,2.175-.808-2.176-2.77-7.461h0l-1.676-4.376h-.008l-.013,0-1.682-4.405A2.4,2.4,0,0,0,151.745,0h-2.386a1.387,1.387,0,0,0-1.321,2.045l1.1,2.742h0l5.18,12.937s2.027,5.084,2.627,6.458c.489,1.119.849,1.783,1.895,1.783h3.8c1.043,0,1.39-.691,1.889-1.777.221-.481.6-1.419,1-2.434l.754-1.935c.632,1.57,1.445,3.579,1.79,4.368.489,1.119.849,1.783,1.895,1.783h3.8c1.043,0,1.39-.691,1.889-1.777.221-.481.6-1.419,1-2.434l3.577-9.184Z" transform="translate(-59.787 0)" fill="white" fill-rule="evenodd"/><path id="Trazado_720" data-name="Trazado 720" d="M224.968,21.177h0L219.79,8.241s-2.027-5.084-2.627-6.458C216.675.664,216.314,0,215.269,0h-3.8c-1.042,0-1.389.691-1.889,1.777-.22.481-.6,1.419-1,2.434L205,13.4l-4.1,10.522a1.374,1.374,0,0,0,1.287,2.045h2.384a2.4,2.4,0,0,0,2.048-1.484l2.317-6.3,1.56-4.249.193-.53,1.879-5.162.791-2.175.808,2.177,2.77,7.46h-4.592a2.464,2.464,0,0,0-2.114,1.541l-.4,1.085a1.177,1.177,0,0,0,1.1,1.752h7.7l.01,0,1.682,4.4a2.4,2.4,0,0,0,2.04,1.484h2.387a1.386,1.386,0,0,0,1.321-2.045Z" transform="translate(-81.155 0)" fill="white" fill-rule="evenodd"/><path id="Trazado_721" data-name="Trazado 721" d="M253.384,0H251a2.4,2.4,0,0,0-2.041,1.484l-3.377,8.783-.8,2.141-1.676-4.164h0l-2.6-6.761A2.4,2.4,0,0,0,238.466,0H236.08a1.386,1.386,0,0,0-1.321,2.045l3.255,8.133,5.65,14.3a2.4,2.4,0,0,0,2.04,1.484h2.386a1.386,1.386,0,0,0,1.321-2.045l-1.1-2.741h0l-.637-1.582,7.026-17.554A1.386,1.386,0,0,0,253.384,0" transform="translate(-94.842 0)" fill="white" fill-rule="evenodd"/></g></svg>