<svg xmlns:xlink="http://www.w3.org/1999/xlink" xmlns="http://www.w3.org/2000/svg" width="32" height="32" viewBox="0 0 32 32"><g id="Grupo_750" data-name="Grupo 750" transform="translate(-416.953 -171)" fill="#FFFFFF"><path id="Trazado_756" data-name="Trazado 756" d="M16,0A16,16,0,1,1,0,16,16,16,0,0,1,16,0Z" transform="translate(416.953 171)" fill="#269FBF"></path><path id="Icon_awesome-phone-alt" data-name="Icon awesome-phone-alt" d="M15.544,11.307l-3.5-1.5a.75.75,0,0,0-.875.216l-1.55,1.894A11.583,11.583,0,0,1,4.081,6.379l1.894-1.55a.748.748,0,0,0,.216-.875l-1.5-3.5A.755.755,0,0,0,3.831.019L.581.769A.75.75,0,0,0,0,1.5,14.5,14.5,0,0,0,14.5,16a.75.75,0,0,0,.731-.581l.75-3.25a.759.759,0,0,0-.438-.863Z" transform="translate(424.953 179)" fill="#FFFFFF"></path></g></svg>