<svg xmlns:xlink="http://www.w3.org/1999/xlink" xmlns="http://www.w3.org/2000/svg" width="32" height="32" viewBox="0 0 32 32"><g id="Grupo_751" data-name="Grupo 751" transform="translate(-416.953 -171)" fill="#FFFFFF"><path id="Trazado_756" data-name="Trazado 756" d="M16,0A16,16,0,1,1,0,16,16,16,0,0,1,16,0Z" transform="translate(416.953 171)" fill="#269FBF"></path><g id="Icon_feather-mail" data-name="Icon feather-mail" transform="translate(421.953 174.6)" fill="#FFFFFF"><path id="Trazado_664" data-name="Trazado 664" d="M4.6,6H17.4A1.6,1.6,0,0,1,19,7.6v9.6a1.6,1.6,0,0,1-1.6,1.6H4.6A1.6,1.6,0,0,1,3,17.2V7.6A1.6,1.6,0,0,1,4.6,6Z" fill="none" stroke="#FFFFFF" stroke-linecap="round" stroke-linejoin="round" stroke-width="2px"></path><path id="Trazado_665" data-name="Trazado 665" d="M19,9l-8,7L3,9" transform="translate(0 -1)" fill="none" stroke="#FFFFFF" stroke-linecap="round" stroke-linejoin="round" stroke-width="2px"></path></g></g></svg>