<svg xmlns:xlink="http://www.w3.org/1999/xlink" xmlns="http://www.w3.org/2000/svg" width="32" height="32" viewBox="0 0 32 32"><g id="Grupo_752" data-name="Grupo 752" transform="translate(-416.953 -171)" fill="#FFFFFF"><path id="Trazado_756" data-name="Trazado 756" d="M16,0A16,16,0,1,1,0,16,16,16,0,0,1,16,0Z" transform="translate(416.953 171)" fill="#269FBF"></path><path id="Icon_awesome-map-marker-alt" data-name="Icon awesome-map-marker-alt" d="M5.383,15.677C.843,9.095,0,8.419,0,6A6,6,0,1,1,12,6c0,2.419-.843,3.095-5.383,9.677a.75.75,0,0,1-1.233,0ZM6,8.5A2.5,2.5,0,1,0,3.5,6,2.5,2.5,0,0,0,6,8.5Z" transform="translate(426.953 179)" fill="#FFFFFF"></path></g></svg>